<svg width="178" height="178" viewBox="0 0 178 178" fill="none" xmlns="http://www.w3.org/2000/svg">
<g filter="url(#filter0_d_21_1299)">
<rect x="4" y="4" width="170" height="170" rx="25" fill="#ECFCFF" fill-opacity="0.6"/>
<g clip-path="url(#clip0_21_1299)">
<path d="M88.7557 60.6888C85.6237 58.2078 82.0338 56.368 78.1908 55.2744C73.4382 53.8926 68.4216 53.683 63.5703 54.6636C58.7191 55.6442 54.1777 57.7858 50.335 60.9051C46.4923 64.0244 43.4628 68.0285 41.5057 72.5745C39.5487 77.1205 38.7225 82.0731 39.0977 87.0082L43.4762 143.498C43.677 145.971 44.6262 148.324 46.1975 150.245C47.7688 152.165 49.8876 153.562 52.2721 154.248C54.8435 154.996 57.5892 154.879 60.0876 153.915C62.5859 152.951 64.6987 151.193 66.1013 148.912L89.2346 111.265L82.5106 100.701C78.5101 94.4118 76.9375 86.8811 78.0869 79.5169C79.2363 72.1527 83.029 65.4594 88.7557 60.6888Z" fill="#2E8A99"/>
<path d="M102.086 54.2971C97.1824 55.3086 92.6036 57.5141 88.7557 60.7181C94.5958 65.384 98.5295 72.0233 99.8165 79.3869C101.103 86.7504 99.6549 94.3304 95.7436 100.701L89.2346 111.265L112.925 148.511C114.324 150.67 116.367 152.332 118.765 153.263C121.163 154.194 123.793 154.345 126.282 153.696C128.77 153.047 130.991 151.63 132.629 149.646C134.266 147.663 135.237 145.214 135.403 142.647L138.893 86.0895C139.167 81.3951 138.358 76.7003 136.527 72.3689C134.696 68.0375 131.893 64.1856 128.334 61.1117C124.775 58.0377 120.557 55.8242 116.005 54.6424C111.454 53.4607 106.691 53.3426 102.086 54.2971Z" fill="#008BBE"/>
<path d="M69.6489 48.7263C76.4769 48.7263 82.0121 43.1912 82.0121 36.3632C82.0121 29.5352 76.4769 24 69.6489 24C62.8209 24 57.2858 29.5352 57.2858 36.3632C57.2858 43.1912 62.8209 48.7263 69.6489 48.7263Z" fill="#008BBE"/>
<path d="M108.351 48.7263C115.179 48.7263 120.714 43.1912 120.714 36.3632C120.714 29.5352 115.179 24 108.351 24C101.523 24 95.9879 29.5352 95.9879 36.3632C95.9879 43.1912 101.523 48.7263 108.351 48.7263Z" fill="#2E8A99"/>
</g>
</g>
<defs>
<filter id="filter0_d_21_1299" x="0" y="0" width="178" height="178" filterUnits="userSpaceOnUse" color-interpolation-filters="sRGB">
<feFlood flood-opacity="0" result="BackgroundImageFix"/>
<feColorMatrix in="SourceAlpha" type="matrix" values="0 0 0 0 0 0 0 0 0 0 0 0 0 0 0 0 0 0 127 0" result="hardAlpha"/>
<feOffset/>
<feGaussianBlur stdDeviation="2"/>
<feComposite in2="hardAlpha" operator="out"/>
<feColorMatrix type="matrix" values="0 0 0 0 0 0 0 0 0 0 0 0 0 0 0 0 0 0 0.25 0"/>
<feBlend mode="normal" in2="BackgroundImageFix" result="effect1_dropShadow_21_1299"/>
<feBlend mode="normal" in="SourceGraphic" in2="effect1_dropShadow_21_1299" result="shape"/>
</filter>
<clipPath id="clip0_21_1299">
<rect width="100" height="130.786" fill="white" transform="translate(39 24)"/>
</clipPath>
</defs>
</svg>
