<svg width="500" height="654" viewBox="0 0 500 654" fill="none" xmlns="http://www.w3.org/2000/svg">
<g clip-path="url(#clip0_108_1978)">
<path d="M248.778 183.444C233.119 171.039 215.169 161.84 195.954 156.372C172.191 149.463 147.108 148.415 122.852 153.318C98.5954 158.221 75.8886 168.929 56.6751 184.526C37.4617 200.122 22.314 220.142 12.5287 242.873C2.74351 265.603 -1.38774 290.365 0.488669 315.041L22.3808 597.488C23.3851 609.854 28.1312 621.621 35.9876 631.224C43.844 640.826 54.4382 647.808 66.3604 651.241C79.2173 654.98 92.946 654.395 105.438 649.574C117.929 644.754 128.493 635.966 135.506 624.56L251.173 436.327L217.553 383.503C197.55 352.059 189.687 314.405 195.434 277.584C201.182 240.763 220.145 207.297 248.778 183.444Z" fill="#2E8A99"/>
<path d="M315.432 151.486C290.912 156.543 268.018 167.57 248.778 183.591C277.979 206.92 297.647 240.117 304.082 276.934C310.517 313.752 303.275 351.652 283.718 383.503L251.173 436.327L369.625 622.557C376.619 633.348 386.837 641.662 398.825 646.315C410.814 650.969 423.964 651.726 436.408 648.48C448.852 645.234 459.956 638.149 468.144 628.232C476.331 618.315 481.186 606.07 482.017 593.237L499.462 310.448C500.837 286.975 496.79 263.502 487.635 241.844C478.481 220.187 464.464 200.928 446.67 185.558C428.876 170.189 407.784 159.121 385.026 153.212C362.268 147.304 338.455 146.713 315.432 151.486Z" fill="#008BBE"/>
<path d="M153.245 123.632C187.385 123.632 215.061 95.9558 215.061 61.8159C215.061 27.6759 187.385 0 153.245 0C119.105 0 91.4288 27.6759 91.4288 61.8159C91.4288 95.9558 119.105 123.632 153.245 123.632Z" fill="#008BBE"/>
<path d="M346.755 123.632C380.895 123.632 408.571 95.9558 408.571 61.8159C408.571 27.6759 380.895 0 346.755 0C312.615 0 284.939 27.6759 284.939 61.8159C284.939 95.9558 312.615 123.632 346.755 123.632Z" fill="#2E8A99"/>
</g>
<defs>
<clipPath id="clip0_108_1978">
<rect width="500" height="653.929" fill="white"/>
</clipPath>
</defs>
</svg>
